<?xml version="1.0" encoding="UTF-8" standalone="no"?>
<!DOCTYPE svg PUBLIC "-//W3C//DTD SVG 1.1//EN" "http://www.w3.org/Graphics/SVG/1.1/DTD/svg11.dtd">
<svg width="100%" height="100%" viewBox="0 0 1051 142" version="1.1" xmlns="http://www.w3.org/2000/svg" xmlns:xlink="http://www.w3.org/1999/xlink" xml:space="preserve" xmlns:serif="http://www.serif.com/" style="fill-rule:evenodd;clip-rule:evenodd;stroke-linejoin:round;stroke-miterlimit:2;">
    <g transform="matrix(1,0,0,1,-474.655,-858.209)">
        <g transform="matrix(0.669342,0,0,0.669342,500.649,857.327)">
            <g transform="matrix(1.10331,0,0,1.10331,-38.8359,1.31768)">
                <path d="M186.658,127.658C190.119,117.746 192,107.093 192,96C192,42.981 149.019,0 96,0C42.981,0 0,42.981 0,96C0,122.234 10.523,146.011 27.578,163.338L124.958,65.958L149,90L186.658,127.658ZM169.122,158.205L124.958,114.042L55.798,183.202C68.027,188.849 81.646,192 96,192C125.288,192 151.514,178.884 169.122,158.205Z" style="fill:rgb(250,250,250);"/>
            </g>
            <g transform="matrix(1.09543,0,0,1.09543,-43.1961,-73.1714)">
                <path d="M243.077,150L259.364,150L259.364,119.896L277.112,119.896L292.501,150L310.699,150L293.288,117.649C302.611,113.942 308.677,105.742 308.677,95.745C308.677,81.367 297.444,71.37 281.493,71.37L243.077,71.37L243.077,150ZM280.033,85.411C287.334,85.411 292.164,89.679 292.164,95.97C292.164,102.26 287.334,106.529 280.033,106.529L259.364,106.529L259.364,85.411L280.033,85.411Z" style="fill:rgb(250,250,250);fill-rule:nonzero;"/>
                <path d="M312.271,120.795C312.271,137.868 325.975,151.123 343.499,151.123C361.022,151.123 374.726,137.868 374.726,120.795C374.726,103.721 361.022,90.353 343.499,90.353C325.975,90.353 312.271,103.721 312.271,120.795ZM343.499,137.756C334.4,137.756 327.323,130.23 327.323,120.795C327.323,111.134 334.512,103.721 343.499,103.721C352.597,103.721 359.674,111.134 359.674,120.795C359.674,130.23 352.597,137.756 343.499,137.756Z" style="fill:rgb(250,250,250);fill-rule:nonzero;"/>
                <path d="M413.255,137.644C404.156,137.644 397.192,130.455 397.192,120.795C397.192,111.134 404.044,103.721 412.918,103.721C418.422,103.721 423.14,106.079 427.408,110.797L436.844,100.8C430.778,94.173 421.904,90.353 412.581,90.353C395.282,90.353 381.915,103.721 381.915,120.795C381.915,137.868 395.282,151.123 412.581,151.123C421.567,151.123 430.329,147.304 436.395,140.677L427.184,131.129C423.027,135.622 418.534,137.644 413.255,137.644Z" style="fill:rgb(250,250,250);fill-rule:nonzero;"/>
                <path d="M444.37,150L459.759,150L459.759,123.266L484.471,150L504.129,150L475.036,118.323L502.444,91.477L485.033,91.477L459.759,116.189L459.759,68L444.37,71.37L444.37,150Z" style="fill:rgb(250,250,250);fill-rule:nonzero;"/>
                <path d="M525.134,152.696C522.888,157.975 519.068,160.671 513.564,160.671C511.205,160.671 509.745,160.559 508.173,160.222L508.173,173.477C509.745,173.926 512.329,174.151 515.025,174.151C527.83,174.151 534.907,168.759 540.973,154.605L567.932,91.477L551.307,91.477L534.682,131.353L520.192,91.477L503.23,91.477L526.033,150.562L525.134,152.696Z" style="fill:rgb(250,250,250);fill-rule:nonzero;"/>
            </g>
            <g transform="matrix(1.09543,0,0,1.09543,-43.1961,43.109)">
                <path d="M243.077,150L259.364,150L259.364,120.345L282.504,120.345C297.781,120.345 308.901,110.123 308.901,96.082C308.901,81.592 298.005,71.37 282.504,71.37L243.077,71.37L243.077,150ZM280.707,85.411C287.784,85.411 292.389,89.679 292.389,96.195C292.389,102.597 287.784,106.866 280.707,106.866L259.364,106.866L259.364,85.411L280.707,85.411Z" style="fill:rgb(250,250,250);fill-rule:nonzero;"/>
                <path d="M312.384,120.795C312.384,137.868 326.088,151.123 343.611,151.123C361.134,151.123 374.838,137.868 374.838,120.795C374.838,103.721 361.134,90.353 343.611,90.353C326.088,90.353 312.384,103.721 312.384,120.795ZM343.611,137.756C334.512,137.756 327.436,130.23 327.436,120.795C327.436,111.134 334.625,103.721 343.611,103.721C352.71,103.721 359.786,111.134 359.786,120.795C359.786,130.23 352.71,137.756 343.611,137.756Z" style="fill:rgb(250,250,250);fill-rule:nonzero;"/>
                <path d="M379.332,143.036C385.959,148.315 395.507,151.123 406.178,151.123C420.893,151.123 431.789,142.811 431.789,131.803C431.789,122.704 425.386,116.751 413.929,115.066L402.696,113.381C396.967,112.595 394.721,111.022 394.721,107.877C394.721,104.395 398.315,102.148 403.932,102.148C409.885,102.148 415.614,103.945 422.016,107.764L429.43,97.879C422.129,93.049 413.929,90.578 405.392,90.578C390.452,90.578 381.016,97.767 381.016,109.112C381.016,118.548 387.195,124.277 398.764,126.074L409.997,127.759C415.052,128.545 417.299,130.23 417.299,133.263C417.299,136.97 412.805,139.441 405.953,139.441C399.775,139.441 393.822,137.307 386.97,132.814L379.332,143.036Z" style="fill:rgb(250,250,250);fill-rule:nonzero;"/>
                <path d="M446.279,133.488C446.279,144.945 453.019,150.899 466.049,150.899C469.419,150.899 474.699,150.112 477.956,149.101L477.956,136.521C474.923,137.532 472.677,137.868 469.756,137.868C463.803,137.868 461.668,135.847 461.668,130.342L461.668,104.395L478.293,104.395L478.293,91.477L461.668,91.477L461.668,73.055L446.279,76.537L446.279,91.477L434.26,91.477L434.26,104.395L446.279,104.395L446.279,133.488Z" style="fill:rgb(250,250,250);fill-rule:nonzero;"/>
                <rect x="483.91" y="111.471" width="42.236" height="13.03" style="fill:rgb(250,250,250);fill-rule:nonzero;"/>
                <rect x="537.94" y="71.37" width="16.288" height="78.63" style="fill:rgb(250,250,250);fill-rule:nonzero;"/>
                <path d="M567.482,150L582.871,150L582.871,109.449C585.567,105.63 589.723,103.608 594.89,103.608C602.304,103.608 607.022,108.438 607.022,115.852L607.022,150L622.411,150L622.411,113.605C622.411,99.901 612.863,90.353 599.271,90.353C592.868,90.353 587.364,92.375 582.871,96.082L582.871,91.477L567.482,91.477L567.482,150Z" style="fill:rgb(250,250,250);fill-rule:nonzero;"/>
                <path d="M629.151,143.036C635.778,148.315 645.326,151.123 655.997,151.123C670.712,151.123 681.608,142.811 681.608,131.803C681.608,122.704 675.205,116.751 663.748,115.066L652.515,113.381C646.786,112.595 644.54,111.022 644.54,107.877C644.54,104.395 648.134,102.148 653.751,102.148C659.704,102.148 665.433,103.945 671.836,107.764L679.249,97.879C671.948,93.049 663.748,90.578 655.211,90.578C640.271,90.578 630.836,97.767 630.836,109.112C630.836,118.548 637.014,124.277 648.584,126.074L659.816,127.759C664.871,128.545 667.118,130.23 667.118,133.263C667.118,136.97 662.625,139.441 655.773,139.441C649.595,139.441 643.641,137.307 636.789,132.814L629.151,143.036Z" style="fill:rgb(250,250,250);fill-rule:nonzero;"/>
                <path d="M696.099,133.488C696.099,144.945 702.838,150.899 715.868,150.899C719.238,150.899 724.518,150.112 727.775,149.101L727.775,136.521C724.742,137.532 722.496,137.868 719.575,137.868C713.622,137.868 711.488,135.847 711.488,130.342L711.488,104.395L728.112,104.395L728.112,91.477L711.488,91.477L711.488,73.055L696.099,76.537L696.099,91.477L684.079,91.477L684.079,104.395L696.099,104.395L696.099,133.488Z" style="fill:rgb(250,250,250);fill-rule:nonzero;"/>
                <path d="M754.285,151.011C761.025,151.011 766.304,149.438 771.247,145.956L771.247,150L786.411,150L786.411,112.033C786.411,98.216 777.312,90.353 761.474,90.353C753.049,90.353 744.625,92.375 735.414,96.644L741.03,107.989C748.444,104.732 753.948,103.159 758.89,103.159C767.09,103.159 771.247,106.641 771.247,113.381L771.247,117.537C766.641,116.077 761.811,115.29 756.981,115.29C741.929,115.29 732.942,121.918 732.942,133.038C732.942,143.71 741.704,151.011 754.285,151.011ZM747.658,132.701C747.658,128.208 751.814,125.4 758.89,125.4C763.384,125.4 767.427,126.074 771.247,127.534L771.247,136.296C767.652,138.767 763.384,140.003 758.329,140.003C751.814,140.003 747.658,137.195 747.658,132.701Z" style="fill:rgb(250,250,250);fill-rule:nonzero;"/>
                <path d="M813.482,68L798.093,71.37L798.093,150L813.482,150L813.482,68Z" style="fill:rgb(250,250,250);fill-rule:nonzero;"/>
                <path d="M840.89,68L825.501,71.37L825.501,150L840.89,150L840.89,68Z" style="fill:rgb(250,250,250);fill-rule:nonzero;"/>
                <path d="M871.444,151.011C878.184,151.011 883.463,149.438 888.405,145.956L888.405,150L903.57,150L903.57,112.033C903.57,98.216 894.471,90.353 878.633,90.353C870.208,90.353 861.784,92.375 852.573,96.644L858.189,107.989C865.603,104.732 871.107,103.159 876.049,103.159C884.249,103.159 888.405,106.641 888.405,113.381L888.405,117.537C883.8,116.077 878.97,115.29 874.14,115.29C859.088,115.29 850.101,121.918 850.101,133.038C850.101,143.71 858.863,151.011 871.444,151.011ZM864.816,132.701C864.816,128.208 868.973,125.4 876.049,125.4C880.542,125.4 884.586,126.074 888.405,127.534L888.405,136.296C884.811,138.767 880.542,140.003 875.488,140.003C868.973,140.003 864.816,137.195 864.816,132.701Z" style="fill:rgb(250,250,250);fill-rule:nonzero;"/>
                <path d="M920.981,133.488C920.981,144.945 927.721,150.899 940.751,150.899C944.121,150.899 949.4,150.112 952.658,149.101L952.658,136.521C949.625,137.532 947.378,137.868 944.458,137.868C938.504,137.868 936.37,135.847 936.37,130.342L936.37,104.395L952.995,104.395L952.995,91.477L936.37,91.477L936.37,73.055L920.981,76.537L920.981,91.477L908.962,91.477L908.962,104.395L920.981,104.395L920.981,133.488Z" style="fill:rgb(250,250,250);fill-rule:nonzero;"/>
                <path d="M968.271,84.512C973.101,84.512 977.033,80.581 977.033,75.751C977.033,70.921 973.101,66.989 968.271,66.989C963.441,66.989 959.51,70.921 959.51,75.751C959.51,80.581 963.441,84.512 968.271,84.512ZM976.022,91.477L960.633,91.477L960.633,150L976.022,150L976.022,91.477Z" style="fill:rgb(250,250,250);fill-rule:nonzero;"/>
                <path d="M985.345,120.795C985.345,137.868 999.049,151.123 1016.57,151.123C1034.1,151.123 1047.8,137.868 1047.8,120.795C1047.8,103.721 1034.1,90.353 1016.57,90.353C999.049,90.353 985.345,103.721 985.345,120.795ZM1016.57,137.756C1007.47,137.756 1000.4,130.23 1000.4,120.795C1000.4,111.134 1007.59,103.721 1016.57,103.721C1025.67,103.721 1032.75,111.134 1032.75,120.795C1032.75,130.23 1025.67,137.756 1016.57,137.756Z" style="fill:rgb(250,250,250);fill-rule:nonzero;"/>
                <path d="M1057.24,150L1072.62,150L1072.62,109.449C1075.32,105.63 1079.48,103.608 1084.64,103.608C1092.06,103.608 1096.78,108.438 1096.78,115.852L1096.78,150L1112.16,150L1112.16,113.605C1112.16,99.901 1102.62,90.353 1089.03,90.353C1082.62,90.353 1077.12,92.375 1072.62,96.082L1072.62,91.477L1057.24,91.477L1057.24,150Z" style="fill:rgb(250,250,250);fill-rule:nonzero;"/>
            </g>
            <g transform="matrix(1.09543,0,0,1.09543,335.872,-73.1714)">
                <path d="M244.649,150L300.14,150L300.14,142.249L253.299,142.249L253.299,71.37L244.649,71.37L244.649,150Z" style="fill:rgb(250,250,250);fill-rule:nonzero;"/>
                <path d="M315.079,82.94C318.225,82.94 320.696,80.356 320.696,77.323C320.696,74.178 318.225,71.707 315.079,71.707C312.047,71.707 309.463,74.178 309.463,77.323C309.463,80.356 312.047,82.94 315.079,82.94ZM319.236,93.723L310.923,93.723L310.923,150L319.236,150L319.236,93.723Z" style="fill:rgb(250,250,250);fill-rule:nonzero;"/>
                <path d="M333.389,150L341.701,150L341.701,108.551C345.071,103.047 350.463,99.901 357.203,99.901C366.863,99.901 372.929,106.079 372.929,116.077L372.929,150L381.129,150L381.129,114.392C381.129,101.474 372.255,92.6 359.449,92.6C352.148,92.6 346.082,95.184 341.701,100.351L341.701,93.723L333.389,93.723L333.389,150Z" style="fill:rgb(250,250,250);fill-rule:nonzero;"/>
                <path d="M402.471,93.723L394.271,93.723L394.271,129.332C394.271,142.249 403.145,151.123 416.063,151.123C423.364,151.123 429.318,148.54 433.699,143.485L433.699,150L442.011,150L442.011,93.723L433.699,93.723L433.699,135.06C430.329,140.677 424.937,143.822 418.197,143.822C408.537,143.822 402.471,137.644 402.471,127.647L402.471,93.723Z" style="fill:rgb(250,250,250);fill-rule:nonzero;"/>
                <path d="M449.649,150L459.085,150L476.496,127.085L493.682,150L503.567,150L481.326,120.907L502.107,93.723L492.559,93.723L476.608,114.841L460.658,93.723L450.773,93.723L471.778,121.019L449.649,150Z" style="fill:rgb(250,250,250);fill-rule:nonzero;"/>
            </g>
            <g transform="matrix(1.09543,0,0,1.09543,946.18,47.4859)">
                <path d="M319.797,112.37L319.797,108.888L282.841,108.888L282.841,116.526L311.036,116.526C309.688,131.915 297.444,143.26 281.493,143.26C263.521,143.26 249.704,129.107 249.704,110.685C249.704,92.263 263.521,78.11 281.493,78.11C291.153,78.11 300.589,82.153 306.655,89.005L312.496,83.052C304.858,74.852 293.625,70.134 281.493,70.134C258.803,70.134 240.942,88.107 240.942,110.685C240.942,133.263 258.915,151.236 281.605,151.236C303.173,151.236 319.797,134.274 319.797,112.37Z" style="fill:rgb(250,250,250);fill-rule:nonzero;"/>
                <path d="M339.567,93.723L331.367,93.723L331.367,129.332C331.367,142.249 340.241,151.123 353.159,151.123C360.46,151.123 366.414,148.54 370.795,143.485L370.795,150L379.107,150L379.107,93.723L370.795,93.723L370.795,135.06C367.425,140.677 362.033,143.822 355.293,143.822C345.633,143.822 339.567,137.644 339.567,127.647L339.567,93.723Z" style="fill:rgb(250,250,250);fill-rule:nonzero;"/>
                <path d="M397.416,82.94C400.562,82.94 403.033,80.356 403.033,77.323C403.033,74.178 400.562,71.707 397.416,71.707C394.384,71.707 391.8,74.178 391.8,77.323C391.8,80.356 394.384,82.94 397.416,82.94ZM401.573,93.723L393.26,93.723L393.26,150L401.573,150L401.573,93.723Z" style="fill:rgb(250,250,250);fill-rule:nonzero;"/>
                <path d="M459.647,150L467.847,150L467.847,69.46L459.534,71.37L459.534,99.227C454.479,95.071 448.077,92.825 441.562,92.825C425.499,92.825 413.142,105.518 413.142,121.805C413.142,138.205 425.611,150.899 441.449,150.899C448.526,150.899 454.816,148.54 459.647,144.047L459.647,150ZM421.342,121.693C421.342,109.337 430.441,100.126 442.236,100.126C449.2,100.126 455.603,103.047 459.534,107.877L459.534,135.734C455.603,140.677 449.312,143.597 442.236,143.597C430.441,143.597 421.342,134.049 421.342,121.693Z" style="fill:rgb(250,250,250);fill-rule:nonzero;"/>
                <path d="M529.403,144.047L524.236,138.542C520.416,141.8 514.575,143.71 508.734,143.71C497.614,143.71 488.852,135.51 487.616,124.389L533.784,124.389L533.784,121.805C533.784,105.63 522.101,92.825 507.162,92.825C491.66,92.825 479.416,105.63 479.416,121.805C479.416,138.318 492.11,151.011 508.397,151.011C516.485,151.011 523.112,148.764 529.403,144.047ZM506.937,100.126C516.26,100.126 524.011,107.764 525.471,117.762L487.841,117.762C489.414,107.427 497.164,100.126 506.937,100.126Z" style="fill:rgb(250,250,250);fill-rule:nonzero;"/>
            </g>
            <g transform="matrix(1.09543,0,0,1.09543,651.325,-75.5093)">
                <path d="M269.137,71.37L259.364,71.37L238.359,79.907L238.359,93.274L253.748,86.984L253.748,150L269.137,150L269.137,71.37Z" style="fill:rgb(250,250,250);fill-rule:nonzero;"/>
                <path d="M313.619,151.123C334.4,151.123 348.216,134.948 348.216,110.573C348.216,86.422 334.288,70.134 313.619,70.134C293.063,70.134 279.022,86.422 279.022,110.573C279.022,134.948 292.951,151.123 313.619,151.123ZM313.619,137.756C301.6,137.756 294.074,127.422 294.074,110.573C294.074,93.948 301.6,83.501 313.619,83.501C325.638,83.501 333.277,93.948 333.277,110.573C333.277,127.422 325.751,137.756 313.619,137.756Z" style="fill:rgb(250,250,250);fill-rule:nonzero;"/>
                <path d="M363.156,132.814C358.214,132.814 354.058,136.97 354.058,142.025C354.058,146.967 358.214,151.123 363.156,151.123C368.211,151.123 372.367,146.967 372.367,142.025C372.367,136.97 368.211,132.814 363.156,132.814Z" style="fill:rgb(250,250,250);fill-rule:nonzero;"/>
                <path d="M376.523,150L393.71,150L407.526,131.353L421.342,150L439.315,150L416.4,120.008L437.967,91.477L420.668,91.477L407.863,108.888L394.945,91.477L377.085,91.477L398.989,120.233L376.523,150Z" style="fill:rgb(250,250,250);fill-rule:nonzero;"/>
            </g>
        </g>
    </g>
</svg>
